/* XPM */
static char * player_down_xpm[] = {
"42 42 464 2",
"  	c None",
". 	c #240F65",
"+ 	c #46367B",
"@ 	c #26116A",
"# 	c #43337C",
"$ 	c #281270",
"% 	c #170840",
"& 	c #000000",
"* 	c #010000",
"= 	c #2F1F72",
"- 	c #453783",
"; 	c #2F257D",
"> 	c #1B224E",
", 	c #01211A",
"' 	c #08211E",
") 	c #1C2021",
"! 	c #182020",
"~ 	c #03211D",
"{ 	c #01221D",
"] 	c #152221",
"^ 	c #706392",
"/ 	c #1A075F",
"( 	c #8784F7",
"_ 	c #7872DC",
": 	c #8B8287",
"< 	c #335E81",
"[ 	c #6AB8F8",
"} 	c #3DD4E4",
"| 	c #04F0D3",
"1 	c #4AEFDD",
"2 	c #D7EFF0",
"3 	c #B8EFED",
"4 	c #11EFD6",
"5 	c #04EFD5",
"6 	c #9FEFE9",
"7 	c #706193",
"8 	c #200F65",
"9 	c #8C88FD",
"0 	c #7A76E0",
"a 	c #888288",
"b 	c #000700",
"c 	c #316583",
"d 	c #69C2FD",
"e 	c #3DDFEB",
"f 	c #05FEDD",
"g 	c #4CFDE8",
"h 	c #DFFBFE",
"i 	c #BFFBFA",
"j 	c #13FDE0",
"k 	c #05FDDF",
"l 	c #A1FCF3",
"m 	c #6B62C1",
"n 	c #827CE9",
"o 	c #8B84FB",
"p 	c #8882F8",
"q 	c #371F68",
"r 	c #2E6C90",
"s 	c #0DE0D1",
"t 	c #13E8D4",
"u 	c #1AF6E0",
"v 	c #14F8DE",
"w 	c #0DFCDC",
"x 	c #38FAE4",
"y 	c #9FF3FA",
"z 	c #89F4F6",
"A 	c #12FCDD",
"B 	c #10FBDD",
"C 	c #20FBE0",
"D 	c #6278CB",
"E 	c #7DA0FD",
"F 	c #799AFB",
"G 	c #7A9BFB",
"H 	c #200059",
"I 	c #1E6A90",
"J 	c #0CFEE8",
"K 	c #0DFDDF",
"L 	c #0CFCDC",
"M 	c #0EFBDC",
"N 	c #0BFCDB",
"O 	c #34FAE3",
"P 	c #96F2FA",
"Q 	c #81F4F5",
"R 	c #0FFCDC",
"S 	c #0DFBDD",
"T 	c #0CFBDD",
"U 	c #4D89C8",
"V 	c #5FB7FA",
"W 	c #5DB3F7",
"X 	c #5EB3F8",
"Y 	c #210057",
"Z 	c #2C6A8D",
"` 	c #4EFEE8",
" .	c #4EFDE2",
"..	c #4EFCE1",
"+.	c #4EFBE0",
"@.	c #4DFBE0",
"#.	c #60FAE6",
"$.	c #A4F4F9",
"%.	c #94F5F6",
"&.	c #4FFCE0",
"*.	c #4EFCE0",
"=.	c #4DFBE1",
"-.	c #2935A7",
";.	c #3548DD",
">.	c #3548D8",
",.	c #3547D8",
"'.	c #00000F",
").	c #67696C",
"!.	c #EAFEFC",
"~.	c #E9FCF9",
"{.	c #E9FBFA",
"].	c #EAFBFA",
"^.	c #E9FCFA",
"/.	c #ECFBFA",
"(.	c #F4FCFA",
"_.	c #F2FBFA",
":.	c #EAFCFA",
"<.	c #EAFCF9",
"[.	c #4B6895",
"}.	c #1C025F",
"|.	c #2931D6",
"1.	c #2A32D7",
"2.	c #2F36DE",
"3.	c #2226A6",
"4.	c #6A696B",
"5.	c #F2F2F2",
"6.	c #F8F8F8",
"7.	c #FBFCFB",
"8.	c #FCFBFA",
"9.	c #F9FCFA",
"0.	c #FAFCFB",
"a.	c #FCFCFB",
"b.	c #98B4BF",
"c.	c #9F99A6",
"d.	c #A988B8",
"e.	c #9173AE",
"f.	c #251A8C",
"g.	c #425697",
"h.	c #A0D1D1",
"i.	c #ABF6F9",
"j.	c #B5F7FA",
"k.	c #AEADAD",
"l.	c #727171",
"m.	c #646D73",
"n.	c #2E5773",
"o.	c #305974",
"p.	c #315A75",
"q.	c #335C79",
"r.	c #F9FCFB",
"s.	c #B1CECF",
"t.	c #C2BFBE",
"u.	c #CFA5AE",
"v.	c #B0899F",
"w.	c #1C025E",
"x.	c #B4FCFC",
"y.	c #84F3F9",
"z.	c #94F4F9",
"A.	c #8C8B8C",
"B.	c #010202",
"C.	c #010703",
"D.	c #050B08",
"E.	c #0D0D0D",
"F.	c #0E181E",
"G.	c #83F3F9",
"H.	c #F6FCFB",
"I.	c #648689",
"J.	c #58565A",
"K.	c #4F3E48",
"L.	c #534656",
"M.	c #ADF9FC",
"N.	c #E3FAFA",
"O.	c #DAF9FA",
"P.	c #638B8D",
"Q.	c #035C4F",
"R.	c #06C3AB",
"S.	c #08BAA1",
"T.	c #08392C",
"U.	c #0E171E",
"V.	c #ADF4F9",
"W.	c #365E63",
"X.	c #2F3137",
"Y.	c #ABF8FC",
"Z.	c #FBFDFB",
"`.	c #F1FBFB",
" +	c #508B8E",
".+	c #037765",
"++	c #08F4D6",
"@+	c #09E7C8",
"#+	c #074737",
"$+	c #0D161B",
"%+	c #91F5F9",
"&+	c #88A2A9",
"*+	c #867A86",
"=+	c #BCB0B7",
"-+	c #A098A1",
";+	c #AFFBFC",
">+	c #B6F8FB",
",+	c #ACEBF2",
"'+	c #528B8E",
")+	c #04523E",
"!+	c #0AB186",
"~+	c #0AA87F",
"{+	c #073125",
"]+	c #0C161C",
"^+	c #5F83A4",
"/+	c #F6E4ED",
"(+	c #CBBDC7",
"_+	c #A3FCFE",
":+	c #8DF5FA",
"<+	c #84E1EA",
"[+	c #518B8E",
"}+	c #043D25",
"|+	c #0A8253",
"1+	c #0B7B4F",
"2+	c #07251A",
"3+	c #0A161C",
"4+	c #83E1EA",
"5+	c #301A61",
"6+	c #CFC5CE",
"7+	c #93FBFD",
"8+	c #8BE8ED",
"9+	c #032A19",
"0+	c #065B3B",
"a+	c #065739",
"b+	c #061B15",
"c+	c #0B161C",
"d+	c #8AE8ED",
"e+	c #599A9F",
"f+	c #F7E4EF",
"g+	c #D9EBF2",
"h+	c #91F9FD",
"i+	c #8FF3F8",
"j+	c #91F5FA",
"k+	c #4F898C",
"l+	c #010404",
"m+	c #040C0C",
"n+	c #0A1317",
"o+	c #98FFFF",
"p+	c #F4E7EE",
"q+	c #C6E0EF",
"r+	c #66CEE9",
"s+	c #90F3F9",
"t+	c #8EECF4",
"u+	c #7FB2B5",
"v+	c #777474",
"w+	c #676C73",
"x+	c #2E4865",
"y+	c #2E4A66",
"z+	c #2E4B67",
"A+	c #314F6C",
"B+	c #8DECF4",
"C+	c #76B3CC",
"D+	c #148BD2",
"E+	c #579ABD",
"F+	c #4094BB",
"G+	c #4AB1DF",
"H+	c #99FEFE",
"I+	c #CEFEFE",
"J+	c #FFFFFE",
"K+	c #CDFAFD",
"L+	c #8BF4F9",
"M+	c #92F7FA",
"N+	c #8BE6F0",
"O+	c #4B3A86",
"P+	c #146DA0",
"Q+	c #4595BB",
"R+	c #4597BC",
"S+	c #3992B9",
"T+	c #75DBEE",
"U+	c #99D9EC",
"V+	c #BDDAEC",
"W+	c #A2DBED",
"X+	c #7EDBED",
"Y+	c #82DBED",
"Z+	c #83DCEE",
"`+	c #7CCCE0",
" @	c #2E3C65",
".@	c #104561",
"+@	c #2F91C6",
"@@	c #1789C9",
"#@	c #1288C5",
"$@	c #3D8DC9",
"%@	c #6191CE",
"&@	c #5C90CD",
"*@	c #5C91CD",
"=@	c #5D92CE",
"-@	c #6098D5",
";@	c #619AD5",
">@	c #5E94D0",
",@	c #373635",
"'@	c #25465A",
")@	c #1A72A2",
"!@	c #1B6EAD",
"~@	c #2273CF",
"{@	c #3882CC",
"]@	c #4D94CC",
"^@	c #4A91CD",
"/@	c #4A92CC",
"(@	c #4992CD",
"_@	c #4A92CD",
":@	c #17176F",
"<@	c #3432E9",
"[@	c #2665D3",
"}@	c #1993C9",
"|@	c #1A8ECA",
"1@	c #1A8DCA",
"2@	c #1B8DC9",
"3@	c #373733",
"4@	c #2C2E6A",
"5@	c #2326A6",
"6@	c #214CA3",
"7@	c #216BA8",
"8@	c #2168A8",
"9@	c #2268A8",
"0@	c #2167A8",
"a@	c #020304",
"b@	c #18093F",
"c@	c #280F65",
"d@	c #270E62",
"e@	c #280F64",
"f@	c #280F62",
"g@	c #270E5D",
"h@	c #260B5D",
"i@	c #25065D",
"j@	c #1C1050",
"k@	c #21125A",
"l@	c #281569",
"m@	c #22125B",
"n@	c #150A3A",
"o@	c #170E45",
"p@	c #2522A7",
"q@	c #3646A8",
"r@	c #4765A5",
"s@	c #260868",
"t@	c #200363",
"u@	c #190063",
"v@	c #13004C",
"w@	c #0E0E1B",
"x@	c #6362E8",
"y@	c #6F9FEF",
"z@	c #78D3EC",
"A@	c #3E5AA1",
"B@	c #4B83C5",
"C@	c #8498C2",
"D@	c #B8B3C5",
"E@	c #9391B8",
"F@	c #181F8F",
"G@	c #292E9B",
"H@	c #8581F7",
"I@	c #ADC4FB",
"J@	c #D1FDFB",
"K@	c #000100",
"L@	c #0C0427",
"M@	c #220067",
"N@	c #4363AD",
"O@	c #65C6FE",
"P@	c #C2E6FD",
"Q@	c #FFFFFD",
"R@	c #D1D3F8",
"S@	c #2833DF",
"T@	c #3740E3",
"U@	c #8180FA",
"V@	c #C9C5FB",
"W@	c #FFFEFB",
"X@	c #130539",
"Y@	c #313666",
"Z@	c #6481B8",
"`@	c #6193D1",
" #	c #62B9FC",
".#	c #97CCFA",
"+#	c #C0E2FA",
"@#	c #9DB9F2",
"##	c #2830D4",
"$#	c #373FD9",
"%#	c #8480FA",
"&#	c #ACC3FB",
"*#	c #CEFBFA",
"=#	c #250B6D",
"-#	c #515DA1",
";#	c #9AD9FE",
">#	c #82C6FE",
",#	c #63B7FA",
"'#	c #61B8FC",
")#	c #5EBAFD",
"!#	c #559FF6",
"~#	c #2C33D9",
"{#	c #3841DF",
"]#	c #8681FB",
"^#	c #8AC1FA",
"/#	c #8AF8F8",
"(#	c #230A67",
"_#	c #4C5E98",
":#	c #96E5FE",
"<#	c #75C5F1",
"[#	c #47A4E6",
"}#	c #4792CA",
"|#	c #457FAC",
"1#	c #3D6DAA",
"2#	c #1D2193",
"3#	c #2D32A0",
"4#	c #8680F8",
"5#	c #8DC1FA",
"6#	c #90F8F8",
"7#	c #220968",
"8#	c #4B6697",
"9#	c #99FFFE",
"0#	c #6AD0E7",
"a#	c #168BCC",
"b#	c #125784",
"c#	c #030117",
"d#	c #000014",
"e#	c #100F1F",
"f#	c #877FF3",
"g#	c #8FC2FB",
"h#	c #93FBFA",
"i#	c #45347F",
"j#	c #536498",
"k#	c #73AFC8",
"l#	c #5092B1",
"m#	c #126593",
"n#	c #0F4061",
"o#	c #040016",
"p#	c #262631",
"q#	c #6F6F6E",
"r#	c #6E737D",
"s#	c #7D96F7",
"t#	c #6FB2F1",
"u#	c #69B9C3",
"v#	c #1D0563",
"w#	c #13033E",
"x#	c #5C5B5A",
"y#	c #FFFEFE",
"z#	c #F1FCFE",
"A#	c #6AC3FD",
"B#	c #2E9BDD",
"C#	c #033055",
"D#	c #42347E",
"E#	c #312958",
"F#	c #2A2B2A",
"G#	c #171718",
"H#	c #4E5357",
"I#	c #E0F2FD",
"J#	c #D3E9F8",
"K#	c #5DA2D1",
"L#	c #2A84BA",
"M#	c #1D4162",
"N#	c #224156",
"O#	c #68C2FD",
"P#	c #59AAE2",
"Q#	c #050B11",
"R#	c #050707",
"S#	c #484749",
"T#	c #0C0806",
"U#	c #274358",
"V#	c #61B7EE",
"W#	c #56A1D6",
"X#	c #101318",
"Y#	c #121011",
"Z#	c #525151",
"`#	c #1F1D1F",
" $	c #07121A",
".$	c #252930",
"+$	c #1E1B1C",
"@$	c #1A1618",
"                                                                                    ",
"        . +                                                                         ",
"        @ #             $ % & * & & * * & & * * & & * & % $             # @         ",
"        = -             ; > , ' ) ! ~ { ] ] { ~ ! ) ' , > ;             - =         ",
"    ^ / ( _ / ^   : & < [ } | 1 2 3 4 5 6 6 5 4 3 2 1 | } [ < & :   ^ / _ ( / ^     ",
"    7 8 9 0 8 7   a b c d e f g h i j k l l k j i h g f e d c b a   7 8 0 9 8 7     ",
"    m n o p n m q r s t u v w x y z A B C C B A z y x w v u t s r q m n p o n m     ",
"    D E F G E D H I J K L M N O P Q R S T T S R Q P O N M L K J I H D E G F E D     ",
"    U V W X V U Y Z `  ...+.@.#.$.%.&.*.=.=.*.&.%.$.#.@.+... .` Z Y U V X W V U     ",
"    -.;.>.,.;.-.'.).!.~.{.].^./.(._.:.<.^.^.<.:._.(./.^.].{.~.!.).'.-.;.,.>.;.-.    ",
"    [.}.|.1.2.3.& 4.5.5.5.6.7.8.9.0.7.a.a.a.a.7.0.9.8.7.6.5.5.5.4.& 3.2.1.|.}.[.    ",
"    b.c.d.e.f.g.h.i.j.k.l.m.n.o.p.q.i.j.r.r.j.i.q.p.o.n.m.l.k.j.i.h.g.f.e.d.c.b.    ",
"    s.t.u.v.w.[.x.y.z.A.& B.C.D.E.F.G.z.H.H.z.G.F.E.D.C.B.& A.z.y.x.[.w.v.u.t.s.    ",
"    I.J.K.L.c.b.M.N.O.P.& Q.R.S.T.U.N.O.V.V.O.N.U.T.S.R.Q.& P.O.N.M.b.c.L.K.J.I.    ",
"    W.& & X.t.s.Y.Z.`. +& .+++@+#+$+Z.`.%+%+`.Z.$+#+@+++.+&  +`.Z.Y.s.t.X.& & W.    ",
"    &+*+=+-+J.I.;+>+,+'+& )+!+~+{+]+>+,+^+^+,+>+]+{+~+!+)+& '+,+>+;+I.J.-+=+*+&+    ",
"        /+(+& W._+:+<+[+& }+|+1+2+3+:+4+5+5+4+:+3+2+1+|+}+& [+<+:+_+W.& (+/+        ",
"          6+*+&+7+%+8+'+& 9+0+a+b+c+%+d+e+e+d+%+c+b+a+0+9+& '+8+%+7+&+*+6+          ",
"            f+g+h+i+j+k+& & & l+m+n+i+j+o+o+j+i+n+m+l+& & & k+j+i+h+g+f+            ",
"            p+q+r+s+t+u+v+w+x+y+z+A+s+B+C+C+B+s+A+z+y+x+w+v+u+t+s+r+q+p+            ",
"                D+E+F+G+H+I+J+K+L+%+M+N+O+O+N+M+%+L+K+J+I+H+G+F+E+D+                ",
"                P+Q+R+S+T+U+V+W+X+Y+Z+`+ @ @`+Z+Y+X+W+V+U+T+S+R+Q+P+                ",
"                & .@+@@@#@$@%@&@*@=@-@;@>@>@;@-@=@*@&@%@$@#@@@+@.@&                 ",
"                ,@'@)@!@~@{@]@^@/@(@_@_@_@_@_@_@(@/@^@]@{@~@!@)@'@,@                ",
"                    & :@<@[@}@|@|@|@1@2@|@|@2@1@|@|@|@}@[@<@:@&                     ",
"                    3@4@5@6@7@8@9@8@0@9@8@8@9@0@8@9@8@7@6@5@4@3@                    ",
"                        a@b@c@d@e@f@g@h@i@i@h@g@f@e@d@c@b@a@                        ",
"                        j@k@l@m@n@o@p@q@r@r@q@p@o@n@m@l@k@j@                        ",
"                        s@t@u@v@& w@x@y@z@z@y@x@w@& v@u@t@s@                        ",
"                      A@B@C@D@E@F@G@H@I@J@J@I@H@G@F@E@D@C@B@A@                      ",
"                K@L@M@N@O@P@Q@R@S@T@U@V@W@W@V@U@T@S@R@Q@P@O@N@M@L@K@                ",
"                X@Y@Z@`@ #.#+#@###$#%#&#*#*#&#%#$###@#+#.# #`@Z@Y@X@                ",
"                =#-#;#>#,#'#)#!#~#{#]#^#/#/#^#]#{#~#!#)#'#,#>#;#-#=#                ",
"                (#_#:#<#[#}#|#1#2#3#4#5#6#6#5#4#3#2#1#|#}#[#<#:#_#(#                ",
"                7#8#9#0#a#b#c#d#& e#f#g#h#h#g#f#e#& d#c#b#a#0#9#8#7#                ",
"                i#j#k#l#m#n#o#p#q#r#s#t#u#u#t#s#r#q#p#o#n#m#l#k#j#i#                ",
"                    v#w#& & & x#y#z#A#B#C#C#B#A#z#y#x#& & & w#v#                    ",
"                    D#E#F#G#& H#I#J#K#L#M#M#L#K#J#I#H#& G#F#E#D#                    ",
"                            & N#O#P#Q#R#S#  R#Q#P#O#N#&                             ",
"                            T#U#V#W#X#Y#Z#  Y#X#W#V#U#T#                            ",
"                              `# $.$+$        +$.$ $`#                              ",
"                                * @$            @$*                                 "};
