/* XPM */
static char * return_disabled_xpm[] = {
"42 42 944 2",
"  	c #414E57",
". 	c #425358",
"+ 	c #425158",
"@ 	c #435058",
"# 	c #43535D",
"$ 	c #3F545A",
"% 	c #3F4D56",
"& 	c #3E5357",
"* 	c #415D5E",
"= 	c #435A5D",
"- 	c #434F57",
"; 	c #44505A",
"> 	c #424E57",
", 	c #43555C",
"' 	c #435559",
") 	c #445A5B",
"! 	c #454D58",
"~ 	c #454D56",
"{ 	c #43535A",
"] 	c #43545A",
"^ 	c #42565C",
"/ 	c #444B54",
"( 	c #424F59",
"_ 	c #444F5A",
": 	c #43565B",
"< 	c #435B5C",
"[ 	c #44565B",
"} 	c #455B5D",
"| 	c #415156",
"1 	c #404F57",
"2 	c #44595D",
"3 	c #44545C",
"4 	c #445058",
"5 	c #415058",
"6 	c #42545A",
"7 	c #425057",
"8 	c #464E55",
"9 	c #454D55",
"0 	c #40595B",
"a 	c #4B505E",
"b 	c #4B4F5C",
"c 	c #4A4F5A",
"d 	c #4B515D",
"e 	c #494F5C",
"f 	c #474D59",
"g 	c #484F5C",
"h 	c #474F5B",
"i 	c #484F5B",
"j 	c #4A525D",
"k 	c #49515C",
"l 	c #60656E",
"m 	c #686B73",
"n 	c #A2A3A7",
"o 	c #9399A7",
"p 	c #ACAEB2",
"q 	c #C0C3C8",
"r 	c #CFCFD1",
"s 	c #B9BABD",
"t 	c #9D9FA7",
"u 	c #A0939F",
"v 	c #C2C4C9",
"w 	c #E3E6E6",
"x 	c #F6F6F6",
"y 	c #E0E0E1",
"z 	c #C0C0C3",
"A 	c #9D9FA3",
"B 	c #666B72",
"C 	c #4C535E",
"D 	c #4B505D",
"E 	c #494E5A",
"F 	c #484D5A",
"G 	c #4A505C",
"H 	c #4A4F5C",
"I 	c #494F5D",
"J 	c #4B525F",
"K 	c #4A515D",
"L 	c #4B525E",
"M 	c #393D4B",
"N 	c #3A3E4B",
"O 	c #3A3C47",
"P 	c #3B3F4C",
"Q 	c #3A3D49",
"R 	c #373945",
"S 	c #383B48",
"T 	c #373A48",
"U 	c #373A46",
"V 	c #44525D",
"W 	c #6C797F",
"X 	c #B3B7BA",
"Y 	c #B6C1CD",
"Z 	c #D2DEE7",
"` 	c #C4DAEF",
" .	c #F2F5F8",
"..	c #DBE8F2",
"+.	c #CEDAE5",
"@.	c #DE86A2",
"#.	c #EC6390",
"$.	c #D38DBA",
"%.	c #C1A2C8",
"&.	c #FF3274",
"*.	c #FF2B6F",
"=.	c #CE98B8",
"-.	c #CFDEE6",
";.	c #E1E7EB",
">.	c #E5E8EC",
",.	c #F7F8FA",
"'.	c #D8D8D9",
").	c #A0A4A6",
"!.	c #5D6168",
"~.	c #393B47",
"{.	c #3A3C48",
"].	c #363A48",
"^.	c #393C49",
"/.	c #393B48",
"(.	c #363B4A",
"_.	c #363A49",
":.	c #353B49",
"<.	c #363B48",
"[.	c #6F4B3C",
"}.	c #73503D",
"|.	c #A86A33",
"1.	c #85583D",
"2.	c #A56837",
"3.	c #AE6E31",
"4.	c #B47233",
"5.	c #A37156",
"6.	c #8A7F8E",
"7.	c #C47082",
"8.	c #94AAC3",
"9.	c #AFC6DC",
"0.	c #B6D4F1",
"a.	c #D5E8F5",
"b.	c #EAF2F8",
"c.	c #DB89A0",
"d.	c #E80145",
"e.	c #FF316E",
"f.	c #D885B5",
"g.	c #FF097C",
"h.	c #FF2C85",
"i.	c #C3B0CE",
"j.	c #D472B2",
"k.	c #D06FB9",
"l.	c #FF0F6B",
"m.	c #DE0A52",
"n.	c #C12171",
"o.	c #DB75A8",
"p.	c #CDA7B8",
"q.	c #B9CAD9",
"r.	c #DDE2EA",
"s.	c #C2DFF1",
"t.	c #CFB3A4",
"u.	c #B47136",
"v.	c #B16E35",
"w.	c #78503C",
"x.	c #B36F31",
"y.	c #996037",
"z.	c #323543",
"A.	c #3C4254",
"B.	c #5B4B4B",
"C.	c #855D43",
"D.	c #82573B",
"E.	c #81553C",
"F.	c #6D4F43",
"G.	c #353B4A",
"H.	c #785340",
"I.	c #4B414A",
"J.	c #645D5E",
"K.	c #827F9A",
"L.	c #D9324C",
"M.	c #953E87",
"N.	c #DD6CB0",
"O.	c #B1CEE5",
"P.	c #CCE9F3",
"Q.	c #B9D1DF",
"R.	c #F1013B",
"S.	c #FF166D",
"T.	c #D682BC",
"U.	c #FF1C8F",
"V.	c #FA1E9B",
"W.	c #DC57AE",
"X.	c #E96294",
"Y.	c #FF235F",
"Z.	c #C61E6D",
"`.	c #FF0A6B",
" +	c #BD9ECB",
".+	c #C39CCB",
"++	c #CE82BB",
"@+	c #C79AC4",
"#+	c #C1AFCA",
"$+	c #C29BC9",
"%+	c #D5E3EA",
"&+	c #BFCEE3",
"*+	c #EAEEF1",
"=+	c #A89690",
"-+	c #6B4F47",
";+	c #826256",
">+	c #7E543A",
",+	c #6A4C3F",
"'+	c #5F4641",
")+	c #81553D",
"!+	c #84583E",
"~+	c #82563F",
"{+	c #9A643A",
"]+	c #93603A",
"^+	c #7B543D",
"/+	c #343541",
"(+	c #90623D",
"_+	c #5C5B5F",
":+	c #7D8C97",
"<+	c #A88EBB",
"[+	c #FE1F74",
"}+	c #8488DC",
"|+	c #B0A5CC",
"1+	c #D0D8E7",
"2+	c #D874AF",
"3+	c #773767",
"4+	c #FF186F",
"5+	c #AAB8D8",
"6+	c #F92892",
"7+	c #8F3B78",
"8+	c #F20A78",
"9+	c #B72670",
"0+	c #8C3B75",
"a+	c #E31279",
"b+	c #F70E86",
"c+	c #C42180",
"d+	c #FC0C88",
"e+	c #FF2278",
"f+	c #FF1D7A",
"g+	c #FF2174",
"h+	c #C0237B",
"i+	c #FA025F",
"j+	c #FF246D",
"k+	c #EF5590",
"l+	c #CABBC8",
"m+	c #DBE3E8",
"n+	c #A39087",
"o+	c #997A68",
"p+	c #9A7861",
"q+	c #7D5A43",
"r+	c #6E4E3F",
"s+	c #946038",
"t+	c #976137",
"u+	c #986339",
"v+	c #505764",
"w+	c #4D5462",
"x+	c #4E5663",
"y+	c #4B525D",
"z+	c #5F6973",
"A+	c #657984",
"B+	c #AFBAC4",
"C+	c #E76693",
"D+	c #E151A8",
"E+	c #E75097",
"F+	c #D5E2E9",
"G+	c #C7A4C6",
"H+	c #D9073A",
"I+	c #FF055B",
"J+	c #BAA4CF",
"K+	c #D966A9",
"L+	c #A33277",
"M+	c #F31892",
"N+	c #9D3571",
"O+	c #682F6F",
"P+	c #48235F",
"Q+	c #3E2459",
"R+	c #552A64",
"S+	c #592A67",
"T+	c #592D67",
"U+	c #67376C",
"V+	c #61306C",
"W+	c #7D3873",
"X+	c #92366A",
"Y+	c #E06499",
"Z+	c #B8A2C3",
"`+	c #C48BC2",
" @	c #A6C9E5",
".@	c #ED4895",
"+@	c #D6E5F0",
"@@	c #C6D8E8",
"#@	c #7A9BB2",
"$@	c #6F8690",
"%@	c #565D6A",
"&@	c #515865",
"*@	c #525965",
"=@	c #525864",
"-@	c #3D555A",
";@	c #39575B",
">@	c #3D525B",
",@	c #3F6266",
"'@	c #4D5E69",
")@	c #837A7A",
"!@	c #BACCD9",
"~@	c #9791D2",
"{@	c #D672A5",
"]@	c #A1C8E8",
"^@	c #C89AC9",
"/@	c #B32353",
"(@	c #66326B",
"_@	c #E50E73",
":@	c #FF0C76",
"<@	c #7E3972",
"[@	c #793873",
"}@	c #5E2B6A",
"|@	c #45235D",
"1@	c #492560",
"2@	c #392159",
"3@	c #4D2561",
"4@	c #66306E",
"5@	c #7D3A77",
"6@	c #843B78",
"7@	c #AE2E76",
"8@	c #E11476",
"9@	c #C72077",
"0@	c #713873",
"a@	c #713575",
"b@	c #9D3472",
"c@	c #E51483",
"d@	c #FF0E73",
"e@	c #B589CC",
"f@	c #E96694",
"g@	c #A194CC",
"h@	c #5D86A0",
"i@	c #5A808A",
"j@	c #455F61",
"k@	c #455F62",
"l@	c #4B5C61",
"m@	c #34474F",
"n@	c #33535A",
"o@	c #2F3E4C",
"p@	c #365960",
"q@	c #434D56",
"r@	c #CBD5DA",
"s@	c #FF2A7D",
"t@	c #CE82BA",
"u@	c #FF107F",
"v@	c #5E3461",
"w@	c #7E427C",
"x@	c #7F4070",
"y@	c #913A72",
"z@	c #642D6E",
"A@	c #46235F",
"B@	c #44235D",
"C@	c #512866",
"D@	c #5B2969",
"E@	c #5A2D6A",
"F@	c #5E306B",
"G@	c #512B66",
"H@	c #432460",
"I@	c #532A64",
"J@	c #60346A",
"K@	c #663470",
"L@	c #A93279",
"M@	c #8F3E7A",
"N@	c #CB1965",
"O@	c #A7317B",
"P@	c #FF1A7C",
"Q@	c #F224A3",
"R@	c #FF1F74",
"S@	c #E02657",
"T@	c #6088A9",
"U@	c #475B6B",
"V@	c #304854",
"W@	c #354751",
"X@	c #33464E",
"Y@	c #2D565D",
"Z@	c #394C58",
"`@	c #B5BBBC",
" #	c #CFD4D7",
".#	c #C8B8C6",
"+#	c #F41383",
"@#	c #DF1678",
"##	c #562A67",
"$#	c #743475",
"%#	c #843970",
"&#	c #773A66",
"*#	c #562766",
"=#	c #672E6D",
"-#	c #502864",
";#	c #612F6C",
">#	c #77387D",
",#	c #7A3E7D",
"'#	c #84417C",
")#	c #823F78",
"!#	c #7F4177",
"~#	c #814374",
"{#	c #67366C",
"]#	c #492662",
"^#	c #502A64",
"/#	c #923B79",
"(#	c #E34CB2",
"_#	c #B4ACCD",
":#	c #F41283",
"<#	c #A877A8",
"[#	c #4B6370",
"}#	c #364C59",
"|#	c #374C56",
"1#	c #374D54",
"2#	c #2E5A5E",
"3#	c #6E8085",
"4#	c #9CBDCF",
"5#	c #BCCADC",
"6#	c #E51383",
"7#	c #FF197C",
"8#	c #E90E72",
"9#	c #673072",
"0#	c #7B3B73",
"a#	c #7F3975",
"b#	c #622D6B",
"c#	c #743471",
"d#	c #652D6A",
"e#	c #6A3470",
"f#	c #7E3A7D",
"g#	c #9D3B89",
"h#	c #D12CA1",
"i#	c #DA27AA",
"j#	c #C231A2",
"k#	c #AF3691",
"l#	c #C92990",
"m#	c #E41D8E",
"n#	c #CD1E7C",
"o#	c #C1247C",
"p#	c #703871",
"q#	c #552B69",
"r#	c #703870",
"s#	c #DF1578",
"t#	c #8CB1CE",
"u#	c #647179",
"v#	c #374E58",
"w#	c #33424B",
"x#	c #3C4751",
"y#	c #495157",
"z#	c #B9BFC1",
"A#	c #D3D6DE",
"B#	c #723575",
"C#	c #67306D",
"D#	c #572B69",
"E#	c #6E3173",
"F#	c #65316F",
"G#	c #582D6A",
"H#	c #7C407E",
"I#	c #E332A7",
"J#	c #C659C0",
"K#	c #A65CCB",
"L#	c #936EC8",
"M#	c #DE32A3",
"N#	c #AE358F",
"O#	c #7F4382",
"P#	c #824383",
"Q#	c #7E417E",
"R#	c #7D3D77",
"S#	c #943A77",
"T#	c #AB2F75",
"U#	c #A8CAE0",
"V#	c #475663",
"W#	c #38565D",
"X#	c #31414B",
"Y#	c #36434F",
"Z#	c #576067",
"`#	c #CACBCC",
" $	c #B8C4D4",
".$	c #FA015F",
"+$	c #663170",
"@$	c #713476",
"#$	c #622C6D",
"$$	c #642F70",
"%$	c #6E3979",
"&$	c #BE6BC7",
"*$	c #A369CE",
"=$	c #E43991",
"-$	c #C41F6D",
";$	c #7D3D81",
">$	c #763D80",
",$	c #774382",
"'$	c #8C4292",
")$	c #91438F",
"!$	c #8C4180",
"~$	c #7A3C7C",
"{$	c #6D3476",
"]$	c #B5D4F1",
"^$	c #6F8EA1",
"/$	c #344852",
"($	c #3A4751",
"_$	c #35505C",
":$	c #4A5761",
"<$	c #DCDFE2",
"[$	c #683371",
"}$	c #6B3572",
"|$	c #5F3570",
"1$	c #C864BA",
"2$	c #D055B3",
"3$	c #C91E72",
"4$	c #833F85",
"5$	c #B23598",
"6$	c #8A4389",
"7$	c #A23F9C",
"8$	c #924692",
"9$	c #78457F",
"0$	c #6F3977",
"a$	c #693573",
"b$	c #6F3E71",
"c$	c #BDCDD7",
"d$	c #32414D",
"e$	c #2D3141",
"f$	c #59636C",
"g$	c #5F6670",
"h$	c #D5D8DE",
"i$	c #FF2274",
"j$	c #C72177",
"k$	c #653575",
"l$	c #BF38A2",
"m$	c #A86EC5",
"n$	c #B42C78",
"o$	c #8C418C",
"p$	c #CD32A2",
"q$	c #9E3D8C",
"r$	c #84418E",
"s$	c #7D4188",
"t$	c #83428D",
"u$	c #894294",
"v$	c #784286",
"w$	c #6E3C7E",
"x$	c #FF196F",
"y$	c #F1023B",
"z$	c #B8D3EB",
"A$	c #969A9F",
"B$	c #5A656E",
"C$	c #BA6E31",
"D$	c #A9795F",
"E$	c #62306C",
"F$	c #CD1F7C",
"G$	c #C94EBD",
"H$	c #FB1570",
"I$	c #9C3F99",
"J$	c #B63BB1",
"K$	c #A83CA0",
"L$	c #A53CAC",
"M$	c #C046C6",
"N$	c #8E6AD3",
"O$	c #87A5DA",
"P$	c #9D79C9",
"Q$	c #AC57CD",
"R$	c #572866",
"S$	c #652D6E",
"T$	c #FF176D",
"U$	c #F1F4F7",
"V$	c #C0B2B4",
"W$	c #AB6C3A",
"X$	c #6F5854",
"Y$	c #867F7E",
"Z$	c #CBDAE2",
"`$	c #E41E8E",
" %	c #DA197D",
".%	c #A336B7",
"+%	c #A93CB9",
"@%	c #922FCE",
"#%	c #9040D3",
"$%	c #7F31D9",
"%%	c #8C33C9",
"&%	c #A138B8",
"*%	c #A640A6",
"=%	c #FB1670",
"-%	c #D4D3D4",
";%	c #685553",
">%	c #393E4C",
",%	c #88898D",
"'%	c #CE94B4",
")%	c #FF0D6B",
"!%	c #FC0B88",
"~%	c #A036CD",
"{%	c #9D3DCF",
"]%	c #6E64C6",
"^%	c #739DC7",
"/%	c #6D91C9",
"(%	c #6A89D4",
"_%	c #7F42CD",
":%	c #F31792",
"<%	c #ACB0B6",
"[%	c #846D60",
"}%	c #A79B95",
"|%	c #FF2C6F",
"1%	c #FF0B6B",
"2%	c #C42280",
"3%	c #592B67",
"4%	c #442560",
"5%	c #7189C8",
"6%	c #52676B",
"7%	c #000000",
"8%	c #405459",
"9%	c #7657B1",
"0%	c #C91F72",
"a%	c #512966",
"b%	c #45245D",
"c%	c #F20C78",
"d%	c #FA1F9B",
"e%	c #CDC6C3",
"f%	c #876C5F",
"g%	c #555C69",
"h%	c #918993",
"i%	c #C61F6D",
"j%	c #6B96D6",
"k%	c #4F5F65",
"l%	c #273441",
"m%	c #7C54C0",
"n%	c #C1C2C5",
"o%	c #585D69",
"p%	c #3B414D",
"q%	c #9E9DA7",
"r%	c #E31179",
"s%	c #73A1CF",
"t%	c #604F9F",
"u%	c #FF2B85",
"v%	c #ADAFB4",
"w%	c #3F444F",
"x%	c #5E6D5E",
"y%	c #C8CBCC",
"z%	c #48245F",
"A%	c #392259",
"B%	c #D12DA1",
"C%	c #C4206D",
"D%	c #709EC6",
"E%	c #5F3BA2",
"F%	c #4D2661",
"G%	c #3E2559",
"H%	c #ABAFB8",
"I%	c #59616B",
"J%	c #859F6C",
"K%	c #D3D9CE",
"L%	c #492660",
"M%	c #5B2A69",
"N%	c #713675",
"O%	c #9D3C89",
"P%	c #6467C6",
"Q%	c #3E4F53",
"R%	c #1D1127",
"S%	c #6651BD",
"T%	c #552B64",
"U%	c #C1C3C7",
"V%	c #383D4B",
"W%	c #799177",
"X%	c #CED3CE",
"Y%	c #F20B78",
"Z%	c #A741CF",
"`%	c #685CB1",
" &	c #263544",
".&	c #180A1F",
"+&	c #613A9E",
"@&	c #C9CACC",
"#&	c #416767",
"$&	c #464952",
"%&	c #BDC3C6",
"&&	c #6B58C0",
"*&	c #6A44AB",
"=&	c #584697",
"-&	c #784CBA",
";&	c #592E67",
">&	c #FC0E88",
",&	c #FF0E6B",
"'&	c #A7AAAD",
")&	c #416061",
"!&	c #3A404C",
"~&	c #BABCBE",
"{&	c #E80045",
"]&	c #9CACB9",
"^&	c #394A55",
"/&	c #334953",
"(&	c #354650",
"_&	c #9BA2AE",
":&	c #643070",
"<&	c #E11376",
"[&	c #FF1C7A",
"}&	c #C12071",
"|&	c #A5AEB4",
"1&	c #354550",
"2&	c #2F414E",
"3&	c #343C48",
"4&	c #A0A2A5",
"5&	c #BBD6ED",
"6&	c #B7BBC2",
"7&	c #303845",
"8&	c #313D4A",
"9&	c #323442",
"0&	c #3A3B47",
"a&	c #C6D3DE",
"b&	c #BEC0C4",
"c&	c #303340",
"d&	c #3E424C",
"e&	c #815A48",
"f&	c #9D643D",
"g&	c #B3ABAF",
"h&	c #B6D5F2",
"i&	c #D9083A",
"j&	c #713576",
"k&	c #663270",
"l&	c #AB3075",
"m&	c #B7BBCB",
"n&	c #B18E7B",
"o&	c #976241",
"p&	c #7E5B4A",
"q&	c #755D5C",
"r&	c #8A5F55",
"s&	c #AD9D9A",
"t&	c #B1D5F0",
"u&	c #B32453",
"v&	c #572C69",
"w&	c #67316D",
"x&	c #A8938D",
"y&	c #855E52",
"z&	c #765C58",
"A&	c #3E424E",
"B&	c #3F4C56",
"C&	c #727880",
"D&	c #9AC7EB",
"E&	c #E90D72",
"F&	c #C0CFE3",
"G&	c #CBE6F5",
"H&	c #949CA0",
"I&	c #454B58",
"J&	c #414653",
"K&	c #323642",
"L&	c #375F5D",
"M&	c #476468",
"N&	c #9F8CB8",
"O&	c #FF0D73",
"P&	c #C9BCCA",
"Q&	c #ADB4BA",
"R&	c #565961",
"S&	c #3A414E",
"T&	c #404552",
"U&	c #393D49",
"V&	c #2F3340",
"W&	c #375758",
"X&	c #39525A",
"Y&	c #8DA8B9",
"Z&	c #EC508F",
"`&	c #432560",
" *	c #FF0F7F",
".*	c #C5CED4",
"+*	c #424D57",
"@*	c #3F4650",
"#*	c #39434F",
"$*	c #383D4A",
"%*	c #3F4551",
"&*	c #30333F",
"**	c #385A5B",
"=*	c #2E3E4A",
"-*	c #527075",
";*	c #9FB8C4",
">*	c #A1B1D8",
",*	c #FF0B76",
"'*	c #E50D73",
")*	c #D5E5F0",
"!*	c #D6E3EB",
"~*	c #687984",
"{*	c #484D58",
"]*	c #3A424F",
"^*	c #3A3F4B",
"/*	c #414652",
"(*	c #37414B",
"_*	c #344D53",
":*	c #2E5058",
"<*	c #335F5F",
"[*	c #517573",
"}*	c #8EA8B3",
"|*	c #D8E6F1",
"1*	c #D5E4EF",
"2*	c #CBE3F6",
"3*	c #7F9DAE",
"4*	c #6D7D86",
"5*	c #3E434F",
"6*	c #39404E",
"7*	c #383E4A",
"8*	c #424E59",
"9*	c #334550",
"0*	c #386765",
"a*	c #40706E",
"b*	c #38585E",
"c*	c #697F86",
"d*	c #D4DBDE",
"e*	c #DEE6EB",
"f*	c #FF1F73",
"g*	c #A298D4",
"h*	c #92BDD2",
"i*	c #76868C",
"j*	c #464D56",
"k*	c #393F4C",
"l*	c #39404D",
"m*	c #393E4B",
"n*	c #424D58",
"o*	c #303341",
"p*	c #3C525A",
"q*	c #3F505B",
"r*	c #395056",
"s*	c #365659",
"t*	c #374C52",
"u*	c #51656A",
"v*	c #717D7E",
"w*	c #A8B6B9",
"x*	c #BECDE2",
"y*	c #FF245F",
"z*	c #FF1D8F",
"A*	c #FA257C",
"B*	c #6F98CB",
"C*	c #7B9BA3",
"D*	c #4D575F",
"E*	c #3A414C",
"F*	c #383F4B",
"G*	c #3E4853",
"H*	c #404754",
"I*	c #3B3E4C",
"J*	c #514F53",
"K*	c #443A40",
"L*	c #484D51",
"M*	c #46464D",
"N*	c #45474B",
"O*	c #484F50",
"P*	c #474548",
"Q*	c #434349",
"R*	c #696F4A",
"S*	c #768544",
"T*	c #9EBFCE",
"U*	c #D8DDE5",
"V*	c #AFDAF9",
"W*	c #9ECDF4",
"X*	c #A68CC8",
"Y*	c #7CA6C8",
"Z*	c #778E99",
"`*	c #5E5C5E",
" =	c #51494A",
".=	c #484448",
"+=	c #444449",
"@=	c #48494E",
"#=	c #47444A",
"$=	c #4F4A4F",
"%=	c #9F6637",
"&=	c #73513E",
"*=	c #865939",
"==	c #935F37",
"-=	c #905C38",
";=	c #4C5548",
">=	c #555D4B",
",=	c #4F5146",
"'=	c #51644B",
")=	c #566147",
"!=	c #504D48",
"~=	c #79847C",
"{=	c #898C88",
"]=	c #9EA2A3",
"^=	c #A7ACB1",
"/=	c #D1D2D4",
"(=	c #C9D7DE",
"_=	c #DAE6EF",
":=	c #A2B2BE",
"<=	c #85908F",
"[=	c #6B7A75",
"}=	c #6D8584",
"|=	c #6F7C77",
"1=	c #714F40",
"2=	c #9B6338",
"3=	c #996338",
"4=	c #9A6439",
"5=	c #935D35",
"6=	c #815435",
"7=	c #7E5437",
"8=	c #765C54",
"9=	c #685855",
"0=	c #6B5B54",
"a=	c #6E5C53",
"b=	c #6E5D56",
"c=	c #5E5456",
"d=	c #5C5652",
"e=	c #635756",
"f=	c #695F56",
"g=	c #6D6356",
"h=	c #725D57",
"i=	c #665C57",
"j=	c #605956",
"k=	c #645A57",
"l=	c #615655",
"m=	c #716260",
"n=	c #A89F9D",
"o=	c #C2BDBC",
"p=	c #CCC9C9",
"q=	c #CCCCCF",
"r=	c #C5C5CA",
"s=	c #BDBABB",
"t=	c #B0A49F",
"u=	c #CDCCCB",
"v=	c #CFD2D4",
"w=	c #D9D9D9",
"x=	c #B3B5BD",
"y=	c #938885",
"z=	c #7C736F",
"A=	c #685C5B",
"B=	c #6C6765",
"C=	c #6A6563",
"D=	c #5D5B5A",
"E=	c #625B58",
"F=	c #745C58",
"G=	c #806055",
"H=	c #775C53",
"I=	c #755B53",
"J=	c #795E53",
"K=	c #765A52",
"L=	c #765D52",
"M=	c #715A51",
"N=	c #2B3B49",
"O=	c #2E424D",
"P=	c #2E424B",
"Q=	c #2C3F4B",
"R=	c #2B3B48",
"S=	c #2B3C48",
"T=	c #2A3947",
"U=	c #2C3C48",
"V=	c #293846",
"W=	c #2E404B",
"X=	c #31474F",
"Y=	c #30444E",
"Z=	c #2E3D4A",
"`=	c #2C3F4A",
" -	c #324A50",
".-	c #2C3E4B",
"+-	c #2D444E",
"@-	c #324A51",
"#-	c #293745",
"$-	c #2A3D4A",
"%-	c #2D3F49",
"&-	c #30434E",
"*-	c #2D3E4A",
"=-	c #2D3C4A",
"--	c #2C404C",
";-	c #31494F",
">-	c #35494E",
",-	c #324951",
"'-	c #2A3D49",
")-	c #293946",
"!-	c #314951",
"~-	c #324C52",
"{-	c #2E404A",
"]-	c #2C414B",
"^-	c #2F444F",
"/-	c #2E3F4B",
"(-	c #2D3F4B",
"_-	c #2A3C49",
"  . + @   # $ % & * = - ; > , ' ) ! ~ { ] ^ / ( _ : < [ [ } | 1 2 3 4 5 6 7 8 9 @ 0 ",
"a b c d e f g h h i j k l m n o p q r s t u v w x y z A B C D E F G H H I J K d G L ",
"M N O P Q R S T U V W X Y Z `  ...+.@.#.$.%.&.*.=.-.;.>.,.'.).!.~.{.~.].^./.(._.:.<.",
"[.}.|.1.2.3.4.5.6.7.8.9.0.a.b.c.d.e.f.g.h.i.j.k.l.m.n.o.p.q.r.s.t.u.v.w.x.y.z.A.B.C.",
"D.E.F.G.H.I.J.K.L.M.N.O.P.Q.R.S.T.U.V.W.X.Y.Z.`. +.+++@+#+$+%+&+*+=+-+;+>+,+'+)+!+~+",
"{+]+^+/+(+_+:+<+[+}+|+1+2+3+4+5+6+7+8+9+0+a+b+c+d+e+f+g+h+i+j+k+l+m+n+o+p+q+r+s+t+u+",
"v+w+x+y+z+A+B+C+D+E+F+G+H+I+J+K+L+M+N+O+P+Q+R+S+T+U+V+W+X+Y+Z+`+ @.@+@@@#@$@%@&@*@=@",
"-@;@>@,@'@)@!@~@{@]@^@/@(@_@:@<@[@}@|@1@2@3@4@5@6@7@8@9@0@a@b@c@d@e@~@f@g@h@i@j@k@l@",
"m@n@o@p@q@r@.@e@s@t@u@v@w@x@y@z@A@B@C@D@E@F@G@H@I@J@K@L@M@N@O@P@Q@s@{@D+R@S@T@U@V@W@",
"X@Y@Z@`@ #.# @d@Q@+#@###$#%#&#*#=#-#;#a@>#,#'#)#!#~#{#]#^#/#(#_#:#t@]@E+}+M.<#[#}#|#",
"1#2#3#4#5#k+`+6#7#_#8#9#0#a#b#c#d#e#f#g#h#i#j#k#l#m#n#o#p#q#r#8#s#u@^@F+|+N.t#u#v#w#",
"x#y#z#A#%+j+Z+b@O@(#r#B#C#D#E#F#G#H#I#J#K#L#M#N#O#P#Q#R#S#T#B#9###v@/@G+1+O.U#V#W#X#",
"Y#Z#`# $$+.$Y+a@N@/#q#T#+$@$#$$$%$&$*$=$-$;$>$,$'$)$!$~${$+$C#0#$#w@(@H+2+P.]$^$/$($",
"_$:$<$p.#+h+X+0@M@^#p#S#{$[$}$|$1$2$3$4$5$6$7$8$9$0$a$b$[$@$D#a#%#x@_@I+3+Q.a.c$d$e$",
"f$g$h$o.@+i$W+j$L@]#o#R#~$b$k$l$m$n$o$p$q$r$s$t$u$v$w$k$}$#$E#b#&#y@:@J+x$y$b.z$A$B$",
"C$D$<$n.++f+E$8@K@{#F$Q#!$a$w$G$H$I$J$K$L$M$N$O$P$Q$G$l$|$$$F#c#R$S$<@K+5+T$c.U$V$W$",
"X$Y$Z$m..+e+U+7@J@~#`$P#)$0$v$Q$ %.%+%@%#%$%%%&%*% %=%m$1$%$G#d#=#A@[@L+6+T.d...-%;%",
">%,%'%)% +!%T+6@I@!#l#O#'$9$u$P$*%~%{%]%^%/%(%_%~%.%I$n$2$&$H#e#-#B@}@:%7+U.e.+.<%^.",
"[%}%|%k.1%2%3%5@4%)#k#N#,$8$t$O$&%_%5%6%7%7%8%9%{%+%J$o$0%*$I#f#;#a%b%N+c%d%f.@.e%f%",
"g%h%&.j.i%b+R+4@G@'#j#M#>$7$s$N$%%j%k%7%7%7%7%l%m%@%K$p$4$=$J#g#a@D@1@O+9+W.g.#.n%o%",
"p%q%%.i.Y.r%Q+3@F@,#i#L#;$6$r$M$$%s%7%7%7%7%7%7%t%#%L$q$5$-$K#h#>#E@2@P+0+X.u%$.v%w%",
"x%y%$.u%X.0+z%A%E@>#B%K#C%5$q$L$#%D%7%7%7%7%7%7%E%$%M$r$6$;$L#i#,#F@F%G%a+Y.i.%.H%I%",
"J%K%#.g.W.9+O+L%M%N%O%J#=$4$p$K$@%P%Q%7%7%7%7%R%S%%%N$s$7$>$M#j#'#G@4@T%b+Z.j.&.U%V%",
"W%X%@.f.V.Y%N+b%a%V+f#I#*$3$o$J$+%Z%`% &7%7%.&+&_%&%O$t$8$,$N#k#)#H@5@3%2%`.k.*.@&#&",
"$&%&+.e.U.7+M+}@B@-#e#H#&$2$n$I$.%~%_%&&*&=&-&{%~%*%P$u$9$'$O#l#!#I@6@;&>& +,&=.'&)&",
"!&~&..{&T.6+L+[@A@=#d#G#%$1$m$=% %*%&%%%$%#%@%+%.% %Q$v$0$)$P#`$~#J@7@U+e+.+m.]&^&/&",
"(&_&U$c.S.5+K+<@z@*#c#F#:&|$l$G$Q$P$O$N$M$L$K$J$I$H$G$w$a$!$Q#n#{#K@<&V+[&++}&|&1&2&",
"3&4&5&b.R.x$J+:@y@&#b#E##$}$k$w$v$u$t$s$r$q$p$o$n$m$l$k$b$~$R#o#]#L@9@W+g+@+o.6&7&8&",
"9&0&a&a.Q.3+I+_@x@%#a#D#@$[$b$a$0$9$8$7$6$5$4$3$2$1$|$}$[${$S#p#^#M@0@X+h+#+p.b&c&d&",
"e&f&g&h&P.2+i&(@w@$#0#C#+${$~$!$)$'$,$>$;$-$=$*$&$%$$$#$j&k&l&q#/#N@a@Y+.$$+m&n&o&p&",
"q&r&s&t&O.1+G+u&v@##9#B#T#S#R#Q#P#O#N#M#L#K#J#I#H#G#F#E#v&w&B#r#(#O@b@Z+j+%+A#x&y&z&",
"A&B&C&D&N.|+F+^@u@s#8#r#q#p#o#n#m#l#k#j#i#h#g#f#e#d#c#b#a#0#9#E&_#7#6#`+k+F&G&H&I&J&",
"K&L&M&N&M.}+E+]@t@+#_#(#/#^#]#{#~#!#)#'#,#>#a@;#-#=#*#&#%#$###s#:#Q@O& @P&Q&R&S&T&U&",
"V&W&X&Y&Z&R@D+{@s@Q@P@O@N@M@L@K@J@I@`&G@F@E@D@C@B@A@z@y@x@w@v@ *t@s@e@.@.*+*@*#*$*%*",
"&***=*-*;*>*f@~@e@d@c@b@a@0@9@8@7@6@5@4@3@2@1@b%}@[@<@,*'*(@/@^@]@{@~@)*!*~*{*]*^*/*",
"(*_*:*<*[*}*|*1*.@ @`+Z+Y+X+W+V+U+T+S+R+Q+P+O+N+M+L+K+J+I+H+G+F+E+D+f@2*3*4*5*6*7*5*",
"8*c&9*0*a*b*c*d*e*l+k+j+.$h+g+[&e+d+c+b+a+0+9+Y%7+6+5+4+3+2+1+|+}+f*g*h*i*j*k*]*l*m*",
"n*o*p*q*r*s*t*u*v*w*x*%+$+#+@+++.+ +`.i%y*X.W.d%z*T.S.R.Q.P.O.N.M.A*B*C*D*E*F*G*H*I*",
"J*K*L*M*N*O*P*Q*R*S*T*U*q.p.o.}&m.,&k.j.i.u%g.f.e.d.c.b.a.h&V*W*X*Y*Z*`* =.=+=@=#=$=",
"%=&=*===-=;=>=,='=)=!=~={=]=^=/=(==.*.&.%.$.#.@.+...U$5&_=:=<=[=}=|=1=2=2=3=4=5=6=7=",
"8=9=0=a=b=c=d=e=f=g=h=i=j=k=l=m=n=o=p=q=r=s=t=u=v=w=x=y=z=A=B=C=D=E=F=G=H=I=J=K=L=M=",
"N=O=P=Q=R=S=R=T=U=V=W=X=Y=Z=`= -.-+-@-#-$-%-&-*-=---=*;->-,-'-)-!-~-{-]-^-O=W=/-(-_-"};
